<svg xmlns="http://www.w3.org/2000/svg" xmlns:xlink="http://www.w3.org/1999/xlink" viewBox="0 0 64 64"><defs><style>.cls-1{fill:url(#linear-gradient);}</style><linearGradient id="linear-gradient" x1="2.29" y1="32" x2="61.71" y2="32" gradientUnits="userSpaceOnUse"><stop offset="0" stop-color="#75e679" id="id_105"></stop><stop offset="1" stop-color="#4c47cc" id="id_106"></stop></linearGradient></defs><g id="Layer_45" data-name="Layer 45"><path class="cls-1" d="M60.71,10.27l-13.85-8a2,2,0,0,0-2,0L32,9.69,19.14,2.27a2,2,0,0,0-2,0l-13.85,8a2,2,0,0,0-1,1.73V28a2,2,0,0,0,1,1.73l12.85,7.43V52a2,2,0,0,0,1,1.73l13.86,8a2,2,0,0,0,2,0l13.86-8a2,2,0,0,0,1-1.73V37.16l12.85-7.43a2,2,0,0,0,1-1.73V12A2,2,0,0,0,60.71,10.27ZM6.29,13.15,18.14,6.31,30,13.15V26.84L18.14,33.69,6.29,26.85ZM32,57.69,20.14,50.85V37.16L32,30.31l11.86,6.85V50.85ZM57.71,26.85,45.86,33.69,34,26.84V13.15L45.86,6.31l11.85,6.84Z" id="id_104"></path></g></svg>